<svg version="1.1" xmlns="http://www.w3.org/2000/svg" xmlns:xlink="http://www.w3.org/1999/xlink" width="894.5" height="548.00504" viewBox="0,0,894.5,548.00504"><g transform="translate(330.00089,241.36307)"><g data-paper-data="{&quot;isPaintingLayer&quot;:true}" fill-rule="nonzero" stroke-linecap="butt" stroke-linejoin="miter" stroke-dasharray="" stroke-dashoffset="0" style="mix-blend-mode: normal"><path d="M22.49911,304.64197c-11.04569,0 -20,-8.95431 -20,-20v-124c0,-11.04569 8.95431,-20 20,-20h520c11.04569,0 20,8.95431 20,20v124c0,11.04569 -8.95431,20 -20,20z" fill="#00b8ff" stroke="#406aa6" stroke-width="4" stroke-miterlimit="4"/><text transform="translate(-329.50089,-214.86307)" font-size="12.3952" xml:space="preserve" fill="#ffffff" fill-rule="nonzero" stroke="none" stroke-width="1" stroke-linecap="butt" stroke-linejoin="miter" stroke-miterlimit="10" stroke-dasharray="" stroke-dashoffset="0" font-family="&quot;DejaVu Sans&quot;" font-weight="normal" text-anchor="start" style="mix-blend-mode: normal"><tspan x="0" dy="0">GET IT ON</tspan></text><text transform="translate(-329.50089,-214.86307)" font-size="29.7088" xml:space="preserve" fill="#ffffff" fill-rule="nonzero" stroke="none" stroke-width="1" stroke-linecap="butt" stroke-linejoin="miter" stroke-miterlimit="10" stroke-dasharray="" stroke-dashoffset="0" font-family="Rokkitt" font-weight="bold" text-anchor="start" style="mix-blend-mode: normal"><tspan x="0" dy="0">GitHub</tspan></text><path d="M126.96384,196.3763c0,0 -45.78387,30.1506 -53.19037,35.02809c-1.9554,1.28771 -5.23089,2.11623 -7.67133,1.55916c-9.37217,-2.13937 -32.26885,-7.69718 -34.34344,-11.37722c-1.15807,-2.05426 -1.20432,-2.75481 -1.24331,-3.62938c-0.04605,-1.03282 0.31265,-2.15313 4.55083,-3.79518c24.98825,-9.68145 93.39583,-36.66201 106.18333,-36.66201c7.57923,0 9.5,-0.20842 9.5,5.89891c0,9.65645 -13.42771,65.63988 -19.39073,90.83953c-2.06765,5.55053 -2.87709,4.7428 -6.32928,4.0104c-6.39814,-1.35739 -36.6116,-28.78299 -44.77206,-35.96202c-1.15618,-1.01713 -1.45525,-3.67173 0.09087,-5.02771c6.20164,-5.43895 46.61549,-40.88259 46.61549,-40.88259z" fill="#ffffff" stroke="none" stroke-width="0" stroke-miterlimit="10"/><text transform="translate(194.00556,194.782) scale(0.89096,0.89096)" font-size="40" xml:space="preserve" fill="#ffffff" fill-rule="nonzero" stroke-opacity="0" stroke="#000000" stroke-width="0" stroke-linecap="butt" stroke-linejoin="miter" stroke-miterlimit="10" stroke-dasharray="" stroke-dashoffset="0" font-family="Sans Serif" font-weight="normal" text-anchor="start" style="mix-blend-mode: normal"><tspan x="0" dy="0">GET IT ON</tspan></text><text transform="translate(191.97028,268.38964) scale(1.80141,1.80141)" font-size="40" xml:space="preserve" fill="#ffffff" fill-rule="nonzero" stroke="#ffffff" stroke-width="2" stroke-linecap="butt" stroke-linejoin="miter" stroke-miterlimit="10" stroke-dasharray="" stroke-dashoffset="0" font-family="Sans Serif" font-weight="normal" text-anchor="start" style="mix-blend-mode: normal"><tspan x="0" dy="0">Telegram</tspan></text></g></g></svg>